<svg width="200" height="200" viewBox="0 0 200 200" fill="none" xmlns="http://www.w3.org/2000/svg">
<g clip-path="url(#clip0_1_12)">
<path fill-rule="evenodd" clip-rule="evenodd" d="M183.333 113.731V74.8C183.333 64.3572 182.785 55.3968 181.121 47.9096C179.436 40.3277 176.498 33.7554 171.372 28.6286C166.245 23.5017 159.672 20.5643 152.09 18.8793C144.603 17.2153 135.643 16.6667 125.2 16.6667H74.8C64.3573 16.6667 55.3968 17.2153 47.9096 18.8793C40.3278 20.5643 33.7554 23.5017 28.6286 28.6286C23.5018 33.7554 20.5643 40.3277 18.8793 47.9096C17.2153 55.3968 16.6667 64.3572 16.6667 74.8V125.2C16.6667 135.642 17.2153 144.603 18.8793 152.09C20.5643 159.672 23.5018 166.245 28.6286 171.372C33.7554 176.498 40.3278 179.436 47.9096 181.121C55.3968 182.785 64.3573 183.333 74.8 183.333H125.2C135.643 183.333 144.603 182.785 152.09 181.121C159.672 179.436 166.245 176.498 171.372 171.372C176.498 166.245 179.436 159.672 181.121 152.09C182.785 144.603 183.333 135.642 183.333 125.2V114.118C183.337 113.989 183.337 113.86 183.333 113.731ZM35.149 51.5254C33.8833 57.2204 33.3333 64.7376 33.3333 74.8V92.4667C39.3323 86.6983 44.9168 81.979 50.3246 78.5377C56.8773 74.3681 63.6017 71.7978 70.8521 71.7978C78.1025 71.7978 84.8267 74.3681 91.38 78.5377C97.8508 82.6554 104.574 88.6033 111.958 95.9875L125.502 109.532C133.697 102.777 141.732 98.1125 150.38 97.035C156.077 96.325 161.449 97.2275 166.667 99.3317V74.8C166.667 64.7376 166.117 57.2204 164.851 51.5254C163.607 45.9251 161.783 42.6106 159.587 40.4137C157.389 38.2168 154.075 36.3937 148.474 35.149C142.78 33.8833 135.263 33.3333 125.2 33.3333H74.8C64.7376 33.3333 57.2204 33.8833 51.5254 35.149C45.9251 36.3937 42.6106 38.2168 40.4137 40.4137C38.2168 42.6106 36.3937 45.9251 35.149 51.5254Z" fill="#5876BF"/>
<path fill-rule="evenodd" clip-rule="evenodd" d="M116.667 66.6667C116.667 57.4619 124.128 50 133.333 50C142.538 50 150 57.4619 150 66.6667C150 75.8714 142.538 83.3333 133.333 83.3333C124.128 83.3333 116.667 75.8714 116.667 66.6667Z" fill="#5876BF"/>
</g>
<defs>
<clipPath id="clip0_1_12">
<rect width="200" height="200" fill="white"/>
</clipPath>
</defs>
</svg>
